<svg version="1.1" xmlns="http://www.w3.org/2000/svg" xmlns:xlink="http://www.w3.org/1999/xlink" width="475.9881" height="370.88894" viewBox="0,0,475.9881,370.88894"><defs><linearGradient x1="459.1763" y1="41.90413" x2="459.1763" y2="352.84142" gradientUnits="userSpaceOnUse" id="color-1"><stop offset="0" stop-color="#d900ff"/><stop offset="1" stop-color="#ffe500"/></linearGradient><linearGradient x1="360.67581" y1="0.10887" x2="360.67581" y2="281.6519" gradientUnits="userSpaceOnUse" id="color-2"><stop offset="0" stop-color="#d900ff"/><stop offset="1" stop-color="#ffe500"/></linearGradient><linearGradient x1="236.62076" y1="132.38365" x2="236.62076" y2="365.24214" gradientUnits="userSpaceOnUse" id="color-3"><stop offset="0" stop-color="#d900ff"/><stop offset="1" stop-color="#ffe500"/></linearGradient><linearGradient x1="140.6759" y1="322.98766" x2="140.6759" y2="363.8643" gradientUnits="userSpaceOnUse" id="color-4"><stop offset="0" stop-color="#d900ff"/><stop offset="1" stop-color="#ffe500"/></linearGradient><linearGradient x1="179.44968" y1="185.20158" x2="179.44968" y2="221.48531" gradientUnits="userSpaceOnUse" id="color-5"><stop offset="0" stop-color="#d900ff"/><stop offset="1" stop-color="#ffe500"/></linearGradient><linearGradient x1="188.99695" y1="-2.6468" x2="188.99695" y2="48.33403" gradientUnits="userSpaceOnUse" id="color-6"><stop offset="0" stop-color="#d900ff"/><stop offset="1" stop-color="#ffe500"/></linearGradient><linearGradient x1="399.00735" y1="347.32994" x2="399.00735" y2="356.51567" gradientUnits="userSpaceOnUse" id="color-7"><stop offset="0" stop-color="#d900ff"/><stop offset="1" stop-color="#ffe500"/></linearGradient></defs><g transform="translate(0.67612,4.1468)"><g data-paper-data="{&quot;isPaintingLayer&quot;:true}" fill-rule="nonzero" stroke="#4d4d4d" stroke-width="3" stroke-linecap="butt" stroke-linejoin="miter" stroke-miterlimit="10" stroke-dasharray="" stroke-dashoffset="0" style="mix-blend-mode: normal"><path d="M444.54062,352.84142v-310.93729h29.27136v310.93729z" fill="url(#color-1)"/><path d="M345.57553,281.6519v-281.54303h30.20056v281.54303z" fill="url(#color-2)"/><path d="M215.01566,365.24214v-232.85849h43.21021v232.85849z" fill="url(#color-3)"/><path d="M0.82388,363.8643v-40.87665h279.70404v40.87665z" fill="url(#color-4)"/><path d="M105.72775,221.48531v-36.28372h147.44385v36.28372z" fill="url(#color-5)"/><path d="M0.82388,48.33403v-50.98083h376.34613v50.98083z" fill="url(#color-6)"/><path d="M327.91977,356.51567v-9.18573h142.17517v9.18573z" fill="url(#color-7)"/></g></g></svg>