<svg version="1.1" xmlns="http://www.w3.org/2000/svg" xmlns:xlink="http://www.w3.org/1999/xlink" width="528.74283" height="409.22473" viewBox="0,0,528.74283,409.22473"><defs><linearGradient x1="239.99999" y1="-24.61237" x2="239.99999" y2="384.61237" gradientUnits="userSpaceOnUse" id="color-1"><stop offset="0" stop-color="#ffe500"/><stop offset="1" stop-color="#ff0000"/></linearGradient><linearGradient x1="142.97093" y1="84.36774" x2="142.97093" y2="127.66667" gradientUnits="userSpaceOnUse" id="color-2"><stop offset="0" stop-color="#000000"/><stop offset="1" stop-color="#ffffff"/></linearGradient><linearGradient x1="88.15661" y1="112.5066" x2="88.15661" y2="155.80552" gradientUnits="userSpaceOnUse" id="color-3"><stop offset="0" stop-color="#000000"/><stop offset="1" stop-color="#ffffff"/></linearGradient><linearGradient x1="115.65607" y1="29.95324" x2="115.65607" y2="73.25217" gradientUnits="userSpaceOnUse" id="color-4"><stop offset="0" stop-color="#000000"/><stop offset="1" stop-color="#ffffff"/></linearGradient><linearGradient x1="60.39882" y1="57.99678" x2="60.39882" y2="101.29571" gradientUnits="userSpaceOnUse" id="color-5"><stop offset="0" stop-color="#000000"/><stop offset="1" stop-color="#ffffff"/></linearGradient><linearGradient x1="102.02518" y1="51.41887" x2="102.02518" y2="134.50184" gradientUnits="userSpaceOnUse" id="color-6"><stop offset="0" stop-color="#000000"/><stop offset="1" stop-color="#ffffff"/></linearGradient><linearGradient x1="83.34445" y1="32.30384" x2="83.34445" y2="79.8237" gradientUnits="userSpaceOnUse" id="color-7"><stop offset="0" stop-color="#000000"/><stop offset="1" stop-color="#ffffff"/></linearGradient><linearGradient x1="64.78622" y1="79.62151" x2="64.78622" y2="144.34249" gradientUnits="userSpaceOnUse" id="color-8"><stop offset="0" stop-color="#000000"/><stop offset="1" stop-color="#ffffff"/></linearGradient><linearGradient x1="139.32793" y1="41.79094" x2="139.32793" y2="106.51192" gradientUnits="userSpaceOnUse" id="color-9"><stop offset="0" stop-color="#000000"/><stop offset="1" stop-color="#ffffff"/></linearGradient><linearGradient x1="120.67812" y1="105.8664" x2="120.67812" y2="153.38626" gradientUnits="userSpaceOnUse" id="color-10"><stop offset="0" stop-color="#000000"/><stop offset="1" stop-color="#ffffff"/></linearGradient><linearGradient x1="278.26792" y1="170.19138" x2="278.26792" y2="241.03188" gradientTransform="translate(-77.72148,-145.48597) scale(0.65146,0.65146)" gradientUnits="userSpaceOnUse" id="color-11"><stop offset="0" stop-color="#ff004d"/><stop offset="1" stop-color="#ffe500"/></linearGradient></defs><g transform="translate(24.37142,24.61237)"><g data-paper-data="{&quot;isPaintingLayer&quot;:true}" fill-rule="nonzero" stroke-linecap="butt" stroke-linejoin="miter" stroke-miterlimit="10" stroke-dasharray="" stroke-dashoffset="0" style="mix-blend-mode: normal"><path d="M-24.37142,384.61237v-409.22473h528.74283v409.22473z" fill="url(#color-1)" stroke="#000000" stroke-width="0"/><g stroke="none"><path d="M152.73472,125.25593c-10.79349,5.47779 -23.91462,1.30494 -29.30704,-9.32033c-5.39242,-10.62527 -1.01409,-23.67932 9.77939,-29.15712c10.79349,-5.47779 23.91472,-1.30492 29.30714,9.32035c5.39242,10.62527 1.014,23.6793 -9.77949,29.15709z" fill="url(#color-2)" stroke-width="0.5"/><path d="M97.92042,153.39479c-10.79349,5.47779 -23.91465,1.30489 -29.30707,-9.32039c-5.39242,-10.62527 -1.01406,-23.67927 9.77942,-29.15706c10.7934,-5.47775 23.91469,-1.30498 29.30711,9.3203c5.39242,10.62527 1.01403,23.67936 -9.77946,29.15715z" fill="url(#color-3)" stroke-width="0.5"/><path d="M125.41987,70.84144c-10.79349,5.47779 -23.91465,1.30488 -29.30707,-9.32039c-5.39242,-10.62527 -1.01406,-23.67926 9.77942,-29.15705c10.79349,-5.47779 23.91468,-1.30498 29.30711,9.32029c5.39242,10.62527 1.01403,23.67936 -9.77946,29.15716z" fill="url(#color-4)" stroke-width="0.5"/><path d="M70.16263,98.88498c-10.79349,5.47779 -23.91465,1.30488 -29.30707,-9.32039c-5.39242,-10.62527 -1.01406,-23.67926 9.77942,-29.15705c10.79349,-5.47779 23.91468,-1.30498 29.3071,9.32029c5.39242,10.62527 1.01403,23.67936 -9.77945,29.15715z" fill="url(#color-5)" stroke-width="0.5"/><path d="M88.18374,134.50184l-27.85955,-54.89469l55.54242,-28.18828l27.85955,54.89469z" fill="url(#color-6)" stroke-width="0"/><path d="M60.42485,79.8237l-9.78889,-19.28811l55.62809,-28.23175l9.78889,19.28811z" fill="url(#color-7)" stroke-width="0"/><path d="M88.43794,134.43307l-19.61091,9.90942l-27.69253,-54.81157l19.61091,-9.90941z" fill="url(#color-8)" stroke-width="0"/><path d="M162.97963,96.6025l-19.61091,9.90942l-27.6925,-54.81158l19.61089,-9.9094z" fill="url(#color-9)" stroke-width="0"/><path d="M97.75851,153.38626l-9.78889,-19.28811l55.62809,-28.23175l9.78889,19.28811z" fill="url(#color-10)" stroke-width="0"/></g><path d="M76.70526,105.66916c-7.05692,-13.90502 -1.50543,-30.89804 12.39959,-37.95496c13.90502,-7.05692 30.89804,-1.50544 37.95496,12.39958c7.05692,13.90502 1.50544,30.89804 -12.39958,37.95496c-13.90502,7.05692 -30.89804,1.50544 -37.95497,-12.39958z" fill="#ffffff" stroke="none" stroke-width="0.5"/><path d="M93.54678,97.12194c-3.76842,-7.42533 -0.8039,-16.49968 6.62143,-20.2681c7.42533,-3.76842 16.49967,-0.80391 20.2681,6.62142c3.76842,7.42533 0.80391,16.49968 -6.62142,20.2681c-7.42533,3.76842 -16.49968,0.80391 -20.2681,-6.62143z" fill="#000000" stroke="none" stroke-width="0.5"/><text transform="translate(119.30325,223.32242) scale(1.53501,1.53501)" font-size="40" xml:space="preserve" fill="url(#color-11)" fill-rule="nonzero" stroke="#ffffff" stroke-width="1" stroke-linecap="butt" stroke-linejoin="miter" stroke-miterlimit="10" stroke-dasharray="" stroke-dashoffset="0" font-family="Sans Serif" font-weight="normal" text-anchor="start" style="mix-blend-mode: normal"><tspan x="0" dy="0">Platformer</tspan></text></g></g></svg>