<svg version="1.1" xmlns="http://www.w3.org/2000/svg" xmlns:xlink="http://www.w3.org/1999/xlink" width="476.14379" height="328.60299" viewBox="0,0,476.14379,328.60299"><defs><linearGradient x1="316.38488" y1="33.2997" x2="316.38488" y2="361.90269" gradientUnits="userSpaceOnUse" id="color-1"><stop offset="0" stop-color="#ff0000"/><stop offset="1" stop-color="#ffe200"/></linearGradient><linearGradient x1="20.02857" y1="342.18085" x2="20.02857" y2="358.25592" gradientUnits="userSpaceOnUse" id="color-2"><stop offset="0" stop-color="#d900ff"/><stop offset="1" stop-color="#ffe500"/></linearGradient></defs><g transform="translate(-4.3575,-33.2997)"><g data-paper-data="{&quot;isPaintingLayer&quot;:true}" fill-rule="nonzero" stroke-linejoin="miter" stroke-miterlimit="10" stroke-dasharray="" stroke-dashoffset="0" style="mix-blend-mode: normal"><path d="M480.33059,33.2997l0.06377,10.71304l-20.94649,317.6775h-10.62366l31.58094,-307.14684v10.49729l-42.41707,296.43706l-10.62366,0.21248l53.03276,-286.01872v10.76193l-63.6564,274.83184h-9.98623l73.57796,-264.61153v10.76193l-84.88904,253.97235l-10.41119,0.21248l95.28651,-243.51059v10.49729l-105.91017,233.0133h-10.19871l116.05791,-222.30342v10.40908l-126.94412,211.81399h-10.19872l137.14284,-201.03555v10.49729l-148.19143,190.53826h-10.19872l158.47837,-180.02877v10.5855l-169.4899,169.35354h-10.41119l179.90109,-158.76773v10.85014l-190.52473,147.91759h-10.83613l201.37314,-137.48228l0.11507,10.5855l-212.3299,127.29806h-10.19872l222.41356,-117.02718v10.93069l-233.03721,105.67155l-9.98624,0.21248l243.04134,-95.28285l0.11507,10.5855l-254.20499,84.48487h-10.19871l264.28864,-74.21963v10.81562l-275.20914,63.46288h-10.44621l285.57366,-53.11126v10.5855l-307.00431,42.52576l10.72479,0.13929l296.35549,-31.92272v10.83613l-317.52649,20.94729l-10.5855,-0.13928l328.00177,-10.25979v10.83613l-10.41119,-0.21247z" data-paper-data="{&quot;index&quot;:null}" fill="url(#color-1)" stroke="#000000" stroke-width="0" stroke-linecap="round"/><path d="M5.8575,358.25592v-16.07507h28.34213v16.07507z" fill="url(#color-2)" stroke="#4d4d4d" stroke-width="3" stroke-linecap="butt"/></g></g></svg>