<svg version="1.1" xmlns="http://www.w3.org/2000/svg" xmlns:xlink="http://www.w3.org/1999/xlink" width="42.31384" height="41.71054" viewBox="0,0,42.31384,41.71054"><defs><linearGradient x1="252.2748" y1="183.48862" x2="252.2748" y2="200.74113" gradientUnits="userSpaceOnUse" id="color-1"><stop offset="0" stop-color="#ff0000"/><stop offset="1" stop-color="#ffe500"/></linearGradient><linearGradient x1="227.63925" y1="183.60276" x2="227.63925" y2="200.85527" gradientUnits="userSpaceOnUse" id="color-2"><stop offset="0" stop-color="#ff0000"/><stop offset="1" stop-color="#ffe500"/></linearGradient><linearGradient x1="252.38212" y1="159.14473" x2="252.38212" y2="176.39724" gradientUnits="userSpaceOnUse" id="color-3"><stop offset="0" stop-color="#ff0000"/><stop offset="1" stop-color="#ffe500"/></linearGradient><linearGradient x1="227.60589" y1="159.14473" x2="227.60589" y2="176.39724" gradientUnits="userSpaceOnUse" id="color-4"><stop offset="0" stop-color="#ff0000"/><stop offset="1" stop-color="#ffe500"/></linearGradient><linearGradient x1="240.03839" y1="167.74354" x2="240.03839" y2="192.35721" gradientUnits="userSpaceOnUse" id="color-5"><stop offset="0" stop-color="#ff0000"/><stop offset="1" stop-color="#ffe500"/></linearGradient><linearGradient x1="240.05431" y1="159.19056" x2="240.05431" y2="167.83896" gradientUnits="userSpaceOnUse" id="color-6"><stop offset="0" stop-color="#ff0000"/><stop offset="1" stop-color="#ffe500"/></linearGradient><linearGradient x1="223.31903" y1="167.80944" x2="223.31903" y2="192.37869" gradientUnits="userSpaceOnUse" id="color-7"><stop offset="0" stop-color="#ff0000"/><stop offset="1" stop-color="#ffe500"/></linearGradient><linearGradient x1="256.74202" y1="167.80944" x2="256.74202" y2="192.37869" gradientUnits="userSpaceOnUse" id="color-8"><stop offset="0" stop-color="#ff0000"/><stop offset="1" stop-color="#ffe500"/></linearGradient><linearGradient x1="240.05431" y1="192.17453" x2="240.05431" y2="200.82293" gradientUnits="userSpaceOnUse" id="color-9"><stop offset="0" stop-color="#ff0000"/><stop offset="1" stop-color="#ffe500"/></linearGradient></defs><g transform="translate(-218.84308,-159.14473)"><g data-paper-data="{&quot;isPaintingLayer&quot;:true}" fill-rule="nonzero" stroke="none" stroke-linecap="butt" stroke-linejoin="miter" stroke-miterlimit="10" stroke-dasharray="" stroke-dashoffset="0" style="mix-blend-mode: normal"><g><path d="M252.27478,200.74113c-4.83958,0 -8.76279,-3.86208 -8.76279,-8.62624c0,-4.76416 3.92321,-8.62627 8.76279,-8.62627c4.83958,0 8.76282,3.86211 8.76282,8.62627c0,4.76416 -3.92324,8.62624 -8.76282,8.62624z" fill="url(#color-1)" stroke-width="0.5"/><path d="M227.63923,200.85527c-4.83958,0 -8.76279,-3.86211 -8.76279,-8.62627c0,-4.76416 3.92321,-8.62624 8.76279,-8.62624c4.83954,0 8.76282,3.86208 8.76282,8.62624c0,4.76416 -3.92324,8.62627 -8.76282,8.62627z" fill="url(#color-2)" stroke-width="0.5"/><path d="M252.3821,176.39724c-4.83958,0 -8.76279,-3.86211 -8.76279,-8.62627c0,-4.76416 3.92321,-8.62624 8.76279,-8.62624c4.83958,0 8.76282,3.86208 8.76282,8.62624c0,4.76416 -3.92324,8.62627 -8.76282,8.62627z" fill="url(#color-3)" stroke-width="0.5"/><path d="M227.60587,176.39724c-4.83958,0 -8.76279,-3.86211 -8.76279,-8.62627c0,-4.76416 3.92321,-8.62624 8.76279,-8.62624c4.83958,0 8.76282,3.86208 8.76282,8.62624c0,4.76416 -3.92324,8.62627 -8.76282,8.62627z" fill="url(#color-4)" stroke-width="0.5"/><path d="M227.58634,192.35721v-24.61367h24.9041v24.61367z" fill="url(#color-5)" stroke-width="0"/><path d="M227.58305,167.83896v-8.6484h24.94251v8.6484z" fill="url(#color-6)" stroke-width="0"/><path d="M227.68942,192.37869l-8.7853,-0.01544l0.04451,-24.55381l8.7853,0.01544z" fill="url(#color-7)" stroke-width="0"/><path d="M261.11241,192.37869l-8.7853,-0.01544l0.04452,-24.55381l8.78529,0.01544z" fill="url(#color-8)" stroke-width="0"/><path d="M227.58305,200.82293v-8.6484h24.94251v8.6484z" fill="url(#color-9)" stroke-width="0"/></g><path d="M228.71102,180c0,-6.23473 5.05425,-11.28898 11.28898,-11.28898c6.23473,0 11.28898,5.05425 11.28898,11.28898c0,6.23473 -5.05425,11.28898 -11.28898,11.28898c-6.23473,0 -11.28898,-5.05425 -11.28898,-11.28898z" fill="#ffffff" stroke-width="0.5"/><path d="M236.26242,180c0,-3.32937 2.69899,-6.02836 6.02836,-6.02836c3.32937,0 6.02836,2.69899 6.02836,6.02836c0,3.32937 -2.69899,6.02836 -6.02836,6.02836c-3.32937,0 -6.02836,-2.69899 -6.02836,-6.02836z" fill="#000000" stroke-width="0.5"/></g></g></svg>